<?xml version="1.0" encoding="utf-8"?>
<svg viewBox="0 0.15948960185050964 100.15949249267578 99.84050750732422" width="100.15949249267578" height="99.84050750732422" xmlns="http://www.w3.org/2000/svg">
  <defs>
  </defs>
  <g transform="matrix(1, 0, 0, 1, 0, 0)">
    <path fill="#6c6c6c" d="M 99.521532,95.53429 76.555021,72.56778 C 83.253588,64.91228 87.400316,54.70494 87.400316,43.859649 87.400316,20.574162 66.985647,0.1594895 43.700162,0.1594895 19.457736,0.1594895 1.2500001e-7,19.617225 1.2500001e-7,43.859649 1.2500001e-7,68.10207 19.457736,87.55981 43.700162,87.55981 c 11.164275,0 21.052629,-4.146729 29.027111,-11.16427 l 22.966505,22.966501 c 0.637962,0.637959 1.594898,0.637959 2.232855,0 l 1.594899,-1.59489 c 0.637958,-0.63796 0.637958,-1.5949 0,-2.23286 z M 43.700162,81.81818 c -21.052633,0 -38.2775139,-17.22488 -38.2775139,-37.958531 0,-21.052632 17.2248809,-38.2775115 38.2775139,-38.2775115 20.414672,0 38.277507,17.8628385 38.277507,38.2775115 C 81.65869,64.91228 64.752791,81.81818 43.700162,81.81818 Z"/>
  </g>
</svg>