<?xml version="1.0" encoding="utf-8"?>
<!-- Generator: Adobe Illustrator 21.0.1, SVG Export Plug-In . SVG Version: 6.00 Build 0)  -->
<svg version="1.1" id="图层_1" xmlns="http://www.w3.org/2000/svg" xmlns:xlink="http://www.w3.org/1999/xlink" x="0px" y="0px"
	 viewBox="0 0 108 108" style="enable-background:new 0 0 108 108;" xml:space="preserve">
<style type="text/css">
	.st0{fill:#FFFFFF;}
</style>
<g>
	<polygon class="st0" points="12.6,60 19.3,60 31.3,28 24.5,28 15.6,51.8 6.8,28 0,28 12,60 	"/>
	<path class="st0" d="M31.9,69.7c-1.1,0-2,0.4-2.7,1.1v-3.1h-1.4v10.2h1.4v-0.6c0.7,0.7,1.7,1.1,2.7,1.1c2.3,0,4.2-1.9,4.2-4.3
		C36.1,71.7,34.2,69.7,31.9,69.7z M31.9,76.9c-1.5,0-2.7-1.3-2.7-2.9s1.2-2.9,2.7-2.9c1.5,0,2.7,1.3,2.7,2.9S33.4,76.9,31.9,76.9z"
		/>
	<polygon class="st0" points="39.5,75.7 37.3,70.2 35.8,70.3 38.7,77.7 37.6,80.5 39.1,80.6 43.2,70.3 41.7,70.2 	"/>
	<rect x="47.4" y="70.2" class="st0" width="1.4" height="7.6"/>
	<rect x="47.3" y="67.2" class="st0" width="1.4" height="1.7"/>
	<path class="st0" d="M55,72.4l-2.5-1c-0.1-0.1-0.7-0.5-0.7-1c-0.1-0.4,0.1-0.8,0.5-1.2c1.3-1.5,3.4,0.1,3.5,0.2l0,0l0,0
		c0,0,0,0,0,0l0.4-0.6l0.4-0.6c-1.1-0.9-3.7-2-5.5,0c-0.7,0.8-1,1.6-0.8,2.4c0.2,1.3,1.4,1.9,1.5,2l2.7,1.1c0,0,0.6,0.2,0.9,0.7
		c0.2,0.3,0.1,0.8-0.1,1.3c-0.1,0.2-0.4,0.9-1.7,0.9c-0.9,0-1.8-0.4-2.4-1.1l-1.1,1c0.9,1,2.2,1.6,3.4,1.6c0,0,0.1,0,0.1,0
		c1.5,0,2.5-0.7,3-1.8c0.4-0.9,0.4-1.7,0.1-2.5C56.2,72.9,55.1,72.5,55,72.4z"/>
	<path class="st0" d="M60,76.7c-0.2-0.2-0.2-0.5-0.2-0.5s0,0,0,0l0-4.6h1.8v-1.4h-1.8l0-1.6h-1.4v1.6H57v1.4h1.4v4.5
		c0,0.2,0,1.1,0.7,1.7c0.4,0.3,0.8,0.5,1.4,0.5c0.4,0,0.8-0.1,1.3-0.2l-0.4-1.4C60.7,76.8,60.2,76.8,60,76.7z"/>
	<path class="st0" d="M66.3,69.5c-2.3,0-4.2,2-4.2,4.4c0,2.4,1.9,4.4,4.2,4.4c2.3,0,4.2-2,4.2-4.4C70.6,71.5,68.7,69.5,66.3,69.5z
		 M66.3,76.8c-1.5,0-2.8-1.3-2.8-2.9s1.2-2.9,2.8-2.9c1.5,0,2.8,1.3,2.8,2.9S67.9,76.8,66.3,76.8z"/>
	<polygon class="st0" points="85.8,69.5 84,69.5 81.3,72.9 81.3,67.6 79.9,67.6 79.9,77.8 81.3,77.8 81.3,74.6 84,77.8 85.9,77.8 
		82.5,73.8 	"/>
	<path class="st0" d="M95,40.4V60h6.2V40.4c0-3.7,3-6.7,6.7-6.7v-6.2C100.8,27.5,95,33.3,95,40.4z"/>
	<rect x="89.4" y="74.1" class="st0" width="11.8" height="0.8"/>
	<rect x="11.8" y="74.1" class="st0" width="11.8" height="0.8"/>
	<path class="st0" d="M92.4,44.3l-6.2,2.3c-0.7,3-2.9,5.4-5.7,6.5c-4,1.5-8.4,0-10.8-3.5l22.8-8.4l-1.1-3c-2.9-8-11.8-12.1-19.8-9.2
		c-8,2.9-12.1,11.8-9.2,19.8l0.3,0.9c2.9,8,11.8,12.1,19.8,9.2c6.1-2.3,10.2-8.1,10.1-14.7L92.4,44.3z M73.8,34.9L73.8,34.9
		c3.6-1.3,7.7-0.2,10.1,2.7l-16.1,5.9C67.8,39.7,70.2,36.2,73.8,34.9z"/>
	<path class="st0" d="M60.1,44.3l-0.3,0l-6.2,2.3c-0.7,3-2.9,5.4-5.7,6.5c-4,1.5-8.4,0-10.8-3.5l22.8-8.4l-1.1-3
		C55.8,30.1,47,26,39,29c-8,2.9-12.1,11.8-9.2,19.8l0.3,0.9c2.9,8,11.8,12.1,19.8,9.2C56.1,56.7,60.2,50.8,60.1,44.3z M41.1,34.9
		L41.1,34.9c3.6-1.3,7.7-0.2,10.1,2.7l-16.1,5.9C35.1,39.7,37.5,36.2,41.1,34.9z"/>
	<path class="st0" d="M75,71c1.1,0,2.1,0.7,2.5,1.7c0,0,0,0.1,0,0.1h1.5c-0.1-0.2-0.1-0.4-0.2-0.7c-0.7-1.6-2.2-2.6-3.8-2.6
		c-2.3,0-4.2,2-4.2,4.4c0,2.4,1.9,4.4,4.2,4.4c1.7,0,3.2-1,3.8-2.6c0.1-0.2,0.1-0.4,0.2-0.5h-1.5c-0.5,1-1.4,1.7-2.5,1.7
		c-1.5,0-2.8-1.3-2.8-2.9C72.2,72.3,73.5,71,75,71z"/>
</g>
</svg>
