<?xml version="1.0" encoding="utf-8"?>
<svg viewBox="-0.2793295085430145 -0.2793295085430145 100.55865478515625 100.55865478515625" width="100.55865478515625" height="100.55865478515625" xmlns="http://www.w3.org/2000/svg">
  <defs>
  </defs>
  <g fill="#666e6e" transform="matrix(1, 0, 0, 1, 0, 0)">
    <path d="M 99.16201,92.458101 56.703911,50 99.16201,7.5418992 c 1.11732,-1.1173179 1.11732,-2.7932959 0,-3.910614 L 96.36872,0.83798925 c -1.11732,-1.117319 -2.7933,-1.117319 -3.91062,0 L 50,43.296089 8.1005593,0.83798925 c -1.117319,-1.117319 -2.793296,-1.117319 -3.910615,0 L 0.83798925,4.1899442 c -1.117319,1.117319 -1.117319,2.793296 0,3.910615 L 43.296089,50.558659 0.83798925,92.458101 c -1.117319,1.117318 -1.117319,2.793296 0,3.910614 l 2.79329595,2.793296 c 1.117318,1.117319 2.793296,1.117319 3.910614,0 L 50,56.703911 l 42.4581,42.4581 c 1.11732,1.117319 2.7933,1.117319 3.91062,0 l 2.79329,-2.793296 c 1.11732,-1.117318 1.11732,-2.793296 0,-3.910614 z" />
  </g>
</svg>