<?xml version="1.0" encoding="utf-8"?>
<svg viewBox="0.5377150177955627 10.485761642456055 98.67717742919922 75.5008773803711" width="98.67717742919922" height="75.5008773803711" xmlns="http://www.w3.org/2000/svg">
  <defs>
  </defs>
  <g transform="matrix(2.6600000858306885, 0, 0, 2.6600000858306885, 0, 10)">
    <path fill="#6C6C6C" d="M18.7509766,25.6015625c-5.2304688,0-9.4853516-4.2548828-9.4853516-9.4853516&#10;&#9;s4.2548828-9.4853516,9.4853516-9.4853516s9.4853516,4.2548828,9.4853516,9.4853516S23.9814453,25.6015625,18.7509766,25.6015625z&#10;&#9; M18.7509766,8.1308594c-4.4033203,0-7.9853516,3.5820312-7.9853516,7.9853516s3.5820312,7.9853516,7.9853516,7.9853516&#10;&#9;s7.9853516-3.5820312,7.9853516-7.9853516S23.1542969,8.1308594,18.7509766,8.1308594z"/>
    <path fill="#6C6C6C" d="M18.7509766,22.3300781c-3.4267578,0-6.2138672-2.7875977-6.2138672-6.2138672&#10;&#9;s2.7871094-6.2133789,6.2138672-6.2133789s6.2138672,2.7871094,6.2138672,6.2133789S22.1777344,22.3300781,18.7509766,22.3300781z&#10;&#9; M18.7509766,11.402832c-2.5996094,0-4.7138672,2.1142578-4.7138672,4.7133789s2.1142578,4.7138672,4.7138672,4.7138672&#10;&#9;s4.7138672-2.1147461,4.7138672-4.7138672S21.3505859,11.402832,18.7509766,11.402832z"/>
    <path fill="#6C6C6C" d="M5.8242188,11.9975586c-1.3417969,0-2.4335938-1.0913086-2.4335938-2.4331055&#10;&#9;s1.0917969-2.4335938,2.4335938-2.4335938s2.4335938,1.0917969,2.4335938,2.4335938S7.1660156,11.9975586,5.8242188,11.9975586z&#10;&#9; M5.8242188,8.6308594c-0.5146484,0-0.9335938,0.4189453-0.9335938,0.9335938s0.4189453,0.9331055,0.9335938,0.9331055&#10;&#9;s0.9335938-0.418457,0.9335938-0.9331055S6.3388672,8.6308594,5.8242188,8.6308594z"/>
    <path fill="#6C6C6C" d="M34.0058594,28.5664062H3.4960938c-1.8164062,0-3.2939453-1.4775391-3.2939453-3.293457V6.9594727&#10;&#9;c0-1.815918,1.4775391-3.293457,3.2939453-3.293457h7.4345703l1.8408203-2.265625&#10;&#9;c0.6269531-0.7739258,1.5595703-1.2177734,2.5556641-1.2177734h6.8466797c0.9970703,0,1.9296875,0.4438477,2.5566406,1.2177734&#10;&#9;l1.8408203,2.265625h7.4345703c1.8154297,0,3.2929688,1.4775391,3.2929688,3.293457v18.3134766&#10;&#9;C37.2988281,27.0888672,35.8212891,28.5664062,34.0058594,28.5664062z M3.4960938,5.1660156&#10;&#9;c-0.9892578,0-1.7939453,0.8046875-1.7939453,1.793457v18.3134766c0,0.9887695,0.8046875,1.793457,1.7939453,1.793457h30.5097656&#10;&#9;c0.9882812,0,1.7929688-0.8046875,1.7929688-1.793457V6.9594727c0-0.9887695-0.8046875-1.793457-1.7929688-1.793457h-7.7919922&#10;&#9;c-0.2255859,0-0.4394531-0.1020508-0.5820312-0.2773438l-2.0654297-2.5429688&#10;&#9;c-0.3417969-0.4213867-0.8496094-0.6630859-1.3925781-0.6630859h-6.8466797c-0.5419922,0-1.0498047,0.2416992-1.3916016,0.6630859&#10;&#9;l-2.0654297,2.5429688c-0.1425781,0.175293-0.3564453,0.2773438-0.5820312,0.2773438H3.4960938z"/>
  </g>
</svg>