<?xml version="1.0" encoding="utf-8"?>
<svg viewBox="10.888543128967285 0 78.22283172607422 100" width="78.22283172607422" height="100" xmlns="http://www.w3.org/2000/svg">
  <defs>
  </defs>
  <g transform="matrix(1, 0, 0, 1, 0, 0)">
    <g fill="#02a388">
      <path d="m 48.650214,49.184528 2.624508,0 c 18.121602,0.518653 37.836655,7.423608 35.824533,24.895332 L 85.118376,90.376804 C 84.087319,98.712741 78.744571,99.950009 68.027831,100 l -36.118228,0 C 21.224106,99.950009 15.850114,98.712741 14.850301,90.376804 L 12.900667,74.07986 C 10.888544,56.608136 30.616095,49.709429 48.706453,49.190777 Z M 28.466498,21.783416 C 28.466498,9.773168 38.245915,0 50.256163,0 c 12.010248,0 21.783415,9.748172 21.783415,21.745923 0,11.99775 -9.773167,21.745922 -21.783415,21.745922 -12.010248,0 -21.783416,-9.773167 -21.783416,-21.783415 z" style="fill:inherit"/>
    </g>
  </g>
</svg>