<?xml version="1.0" encoding="UTF-8"?>
<svg width="16px" height="16px" viewBox="0 0 16 16" version="1.1" xmlns="http://www.w3.org/2000/svg" xmlns:xlink="http://www.w3.org/1999/xlink">
    <!-- Generator: Sketch 46.2 (44496) - http://www.bohemiancoding.com/sketch -->
    <title>Fill 178</title>
    <desc>Created with Sketch.</desc>
    <defs></defs>
    <g id="Symbols" stroke="none" stroke-width="1" fill="none" fill-rule="evenodd">
        <g id="footer" transform="translate(-1059.000000, -108.000000)" fill="#FFFFFE">
            <path d="M1074.52274,109.783205 L1073.04152,108.3061 C1072.63287,107.897967 1071.96946,107.897967 1071.56029,108.3061 L1069.33846,111.260309 C1068.99929,111.760054 1068.92981,112.32928 1069.33846,112.737414 L1070.24531,113.64169 C1069.57315,114.542363 1068.76615,115.524355 1067.85775,116.430175 C1066.83047,117.454369 1065.6879,118.385408 1064.66062,119.150209 L1063.78414,118.276813 C1063.37549,117.868679 1062.80472,117.937645 1062.30291,118.276813 L1059.34047,120.49247 C1058.84381,120.834726 1058.93131,121.56144 1059.34047,121.969574 L1060.82169,123.446164 C1061.64002,124.262432 1062.70384,124.000979 1063.78414,123.446164 C1063.78414,123.446164 1067.05384,121.615996 1069.85313,118.824422 C1072.48619,116.198573 1074.52274,112.737414 1074.52274,112.737414 C1074.94734,111.572714 1075.34106,110.598958 1074.52274,109.783205" id="Fill-178" transform="translate(1067.000000, 115.982456) scale(-1, 1) translate(-1067.000000, -115.982456) "></path>
        </g>
    </g>
</svg>